<?xml version="1.0" encoding="UTF-8"?>
<svg width="700pt" height="700pt" version="1.1" viewBox="0 0 700 700" xmlns="http://www.w3.org/2000/svg">
 <path d="m525 402.5v52.5c0 13.926-5.5312 27.277-15.375 37.125-9.8477 9.8438-23.199 15.375-37.125 15.375h-245c-13.926 0-27.277-5.5312-37.125-15.375-9.8438-9.8477-15.375-23.199-15.375-37.125v-350c0-13.926 5.5312-27.277 15.375-37.125 9.8477-9.8438 23.199-15.375 37.125-15.375h52.5c6.2539 0 12.031 3.3359 15.156 8.75s3.125 12.086 0 17.5-8.9023 8.75-15.156 8.75h-52.5c-4.6406 0-9.0938 1.8438-12.375 5.125s-5.125 7.7344-5.125 12.375v350c0 4.6406 1.8438 9.0938 5.125 12.375s7.7344 5.125 12.375 5.125h245c4.6406 0 9.0938-1.8438 12.375-5.125s5.125-7.7344 5.125-12.375v-52.5c0-6.2539 3.3359-12.031 8.75-15.156s12.086-3.125 17.5 0 8.75 8.9023 8.75 15.156zm0-192.5v105c0 6.2539-3.3359 12.031-8.75 15.156s-12.086 3.125-17.5 0-8.75-8.9023-8.75-15.156v-87.5h-87.5c-13.926 0-27.277-5.5312-37.125-15.375-9.8438-9.8477-15.375-23.199-15.375-37.125v-105c0.027344-2.2852 0.50391-4.5469 1.3984-6.6484 1.7773-4.2773 5.1758-7.6758 9.4531-9.4531 4.2578-1.75 9.0391-1.75 13.297 0 2.1484 0.83594 4.1133 2.082 5.7773 3.6758l140 140c1.5938 1.6641 2.8398 3.6289 3.6758 5.7773 0.89453 2.1016 1.3711 4.3633 1.3984 6.6484zm-122.5-17.5h62.824l-80.324-80.324v62.824c0 4.6406 1.8438 9.0938 5.125 12.375s7.7344 5.125 12.375 5.125z"/>
</svg>
