<?xml version="1.0" encoding="UTF-8"?>
<svg width="700pt" height="700pt" version="1.1" viewBox="0 0 700 700" xmlns="http://www.w3.org/2000/svg">
 <path d="m441.34 2.2656c6.8906 3.8945 10.312 11.93 8.3398 19.598l-48.438 188.14h141.25c7.3008 0 13.832 4.5312 16.391 11.367 2.5586 6.8398 0.60547 14.547-4.9023 19.336l-362.07 315c-6.1836 5.3789-15.273 5.7461-21.867 0.88281-6.6016-4.8633-8.9375-13.652-5.6289-21.152l97.285-220.43h-104.21c-7.0508 0-13.414-4.2305-16.141-10.734-2.7227-6.5-1.2812-14.004 3.6602-19.031l275.23-280c5.5508-5.6445 14.199-6.8594 21.09-2.9648zm-242.1 277.73h89.32c5.918 0 11.434 2.9883 14.664 7.9453 3.2266 4.957 3.7344 11.207 1.3477 16.621l-76.469 173.27 267.62-232.83h-117.05c-5.4141 0-10.516-2.5039-13.832-6.7773-3.3164-4.2773-4.4648-9.8477-3.1172-15.086l37.82-146.91z" fill-rule="evenodd"/>
</svg>
