<?xml version="1.0" encoding="UTF-8"?>
<svg width="700pt" height="700pt" version="1.1" viewBox="0 0 700 700" xmlns="http://www.w3.org/2000/svg">
 <path d="m350 17.5c-144.74 0-262.5 117.76-262.5 262.5s117.76 262.5 262.5 262.5 262.5-117.76 262.5-262.5-117.76-262.5-262.5-262.5zm0 490c-125.44 0-227.5-102.06-227.5-227.5s102.06-227.5 227.5-227.5 227.5 102.06 227.5 227.5-102.06 227.5-227.5 227.5zm98.438-171.17c7.5586 6.0391 8.7656 17.047 2.7305 24.586-3.4492 4.3242-8.5391 6.5625-13.668 6.5625-3.832 0-7.6992-1.2617-10.922-3.832l-87.5-70c-4.1484-3.3086-6.5625-8.3477-6.5625-13.668v-87.5c0-9.6602 7.8398-17.5 17.5-17.5s17.5 7.8398 17.5 17.5v79.102l80.938 64.75z"/>
</svg>
