<?xml version="1.0" encoding="UTF-8"?>
<svg width="700pt" height="700pt" version="1.1" viewBox="0 0 700 700" xmlns="http://www.w3.org/2000/svg">
 <path d="m306.77 45.988-51.711 120.59-130.66 11.918c-18.742 1.6992-34.648 14.422-40.457 32.305-5.8125 17.887-0.42188 37.52 13.734 49.91l98.719 86.449-29.051 127.95c-4.1641 18.34 2.9922 37.414 18.219 48.457 15.207 11.059 35.559 11.984 51.711 2.3594l112.72-67.18 112.72 67.18c16.152 9.625 36.504 8.6992 51.711-2.3594 15.227-11.043 22.383-30.117 18.219-48.457l-29.051-127.95 98.719-86.449c14.156-12.391 19.547-32.023 13.734-49.91-5.8086-17.883-21.715-30.605-40.457-32.305l-130.66-11.918-51.711-120.59c-7.4219-17.27-24.414-28.488-43.227-28.488s-35.805 11.219-43.227 28.488zm32.168 13.809c1.8867-4.4258 6.2461-7.2969 11.059-7.2969s9.1719 2.8711 11.059 7.2969l55.809 130.16c2.5391 5.918 8.1016 9.9609 14.508 10.535l141.05 12.863c4.793 0.4375 8.8555 3.6758 10.34 8.2617 1.4883 4.5664 0.10547 9.5898-3.5156 12.773 0 0-106.56 93.293-106.56 93.293-4.8281 4.2344-6.9453 10.781-5.5273 17.047l31.359 138.12c1.0664 4.6914-0.76953 9.5742-4.6562 12.391-3.9023 2.8359-9.1016 3.0781-13.246 0.61328l-121.66-72.52c-5.5117-3.293-12.41-3.293-17.922 0l-121.66 72.52c-4.1445 2.4648-9.3438 2.2227-13.246-0.61328-3.8867-2.8164-5.7227-7.6992-4.6562-12.391l31.359-138.12c1.418-6.2656-0.69922-12.812-5.5273-17.047l-106.56-93.293c-3.6211-3.1836-5.0039-8.207-3.5156-12.773 1.4844-4.5859 5.5469-7.8242 10.34-8.2617l141.05-12.863c6.4062-0.57422 11.969-4.6172 14.508-10.535l55.809-130.16z" fill-rule="evenodd"/>
</svg>
