<?xml version="1.0" encoding="UTF-8"?>
<svg width="700pt" height="700pt" version="1.1" viewBox="0 0 700 700" xmlns="http://www.w3.org/2000/svg">
 <path d="m577.5 105h-140v-17.5c0-29.75-22.75-52.5-52.5-52.5h-70c-29.75 0-52.5 22.75-52.5 52.5v17.5h-140c-10.5 0-17.5 7-17.5 17.5s7 17.5 17.5 17.5h52.5v297.5c0 49 38.5 87.5 87.5 87.5h175c49 0 87.5-38.5 87.5-87.5v-297.5h52.5c10.5 0 17.5-7 17.5-17.5s-7-17.5-17.5-17.5zm-280-17.5c0-10.5 7-17.5 17.5-17.5h70c10.5 0 17.5 7 17.5 17.5v17.5h-105zm192.5 350c0 29.75-22.75 52.5-52.5 52.5h-175c-29.75 0-52.5-22.75-52.5-52.5v-297.5h280zm-175-227.5v210c0 10.5-7 17.5-17.5 17.5s-17.5-7-17.5-17.5v-210c0-10.5 7-17.5 17.5-17.5s17.5 7 17.5 17.5zm105 0v210c0 10.5-7 17.5-17.5 17.5s-17.5-7-17.5-17.5v-210c0-10.5 7-17.5 17.5-17.5s17.5 7 17.5 17.5z"/>
</svg>
